# xmcd CD database file
# Copyright (C) 1993-1998 Ti Kan
#
# Track frame offsets:
#  150
#  13115
#  27100
#  41855
#  59555
#  79970
#  96552
#  111242
#  127025
#  142495
#
# Disc length: 2150 seconds
#
# Revision: 1
# Processed by: cddbd v1.4b41PL1 Copyright (c) Steve Scherf et al.
# Submitted via: KiC 2.1 - (C) 1996-1998 Alwin Hoogerdijk
#
DISCID=9b08640a
DTITLE=Asleep at the Wheel - Route 66
DYEAR=1900
DGENRE=
TTITLE0=(Get Your Kicks On) Route 66
TTITLE1=Miles And Miles Of Texas
TTITLE2=The Letter That Johnny Walker Read
TTITLE3=Don't Forget The Trains
TTITLE4=One O'Clock Jump
TTITLE5=Take Me Back To Tulsa
TTITLE6=Bump Bounce Boogie
TTITLE7=Texas, Me and You
TTITLE8=My Baby Thinks She's A Train
TTITLE9=Choo Choo Ch'Boogie
EXTD=The Western Swing revivalist band Asleep at the Wheel helped popularize th
EXTD=e genre in the '70s and went on to enjoy an eclectic, freewheeling career 
EXTD=which earned the group a dedicated following of both fans and critics. Ove
EXTD=r the course of their career, a number of musicians passed through the gro
EXTD=up -- more than 80, to be precise -- but throughout the years, the vision 
EXTD=of vocalist/guitarist Ray Benson kept the band together. \n
EXTT0=
EXTT1=
EXTT2=
EXTT3=
EXTT4=
EXTT5=
EXTT6=
EXTT7=
EXTT8=
EXTT9=
PLAYORDER=
